<?xml version="1.0" ?><svg height="64" id="svg8" version="1.1" viewBox="0 0 16.933333 16.933334" width="64" xmlns="http://www.w3.org/2000/svg" xmlns:cc="http://creativecommons.org/ns#" xmlns:dc="http://purl.org/dc/elements/1.1/" xmlns:inkscape="http://www.inkscape.org/namespaces/inkscape" xmlns:rdf="http://www.w3.org/1999/02/22-rdf-syntax-ns#" xmlns:sodipodi="http://sodipodi.sourceforge.net/DTD/sodipodi-0.dtd" xmlns:svg="http://www.w3.org/2000/svg"><defs id="defs2"/><g id="layer1"><path d="m 6.615102,2.3807329 c 0,0.4448107 0.156513,0.8550414 0.4196131,1.1751221 C 6.626536,3.7679879 6.27304,4.0640942 5.990334,4.426603 5.739777,3.9876966 5.3715508,3.6285644 4.9278671,3.3930744 5.155532,3.1177569 5.2921859,2.7646984 5.2921859,2.3807329 c 0,-0.8734453 -0.708697,-1.58670002 -1.5875,-1.58698313 -0.878803,2.8311e-4 -1.5875,0.71353833 -1.5875,1.58698313 0,0.3846265 0.135542,0.737337 0.363802,1.0128582 -0.848552,0.4510442 -1.422652,1.3545955 -1.422652,2.3926189 v 0.4041095 c 0,0.8236667 0.652571,1.482597 1.458825,1.482597 h 2.3729822 c 0.17956,0 0.3496598,-0.031924 0.5095298,-0.092501 0.08568,0.2356212 0.221892,0.4453279 0.3917071,0.6211506 -1.6655312,-5.21e-5 -3.3310631,-1e-4 -4.99659413,5.292e-4 -0.147743,-5.821e-4 -0.267334,0.1189038 -0.265617,0.2666378 0.0045,0.5484165 0.05786,0.8916533 0.183451,1.148251 0.135531,0.27691 0.33973103,0.3915909 0.51366403,0.4707709 0.173933,0.07918 0.317334,0.128616 0.472839,0.259933 0.155506,0.131317 0.332252,0.351952 0.519349,0.791167 0.187093,0.439216 0.222782,0.719813 0.208772,0.919841 -0.01401,0.200027 -0.07674,0.329457 -0.144177,0.501778 -0.06744,0.172324 -0.139558,0.393599 -0.04496,0.677994 0.08774,0.263779 0.288029,0.529984 0.664042,0.898137 0.376013,0.368152 0.646472,0.561745 0.912089,0.644405 0.2656182,0.08265 0.4692621,0.03069 0.6774781,-0.05426 0.1717289,-0.07005 0.303199,-0.135026 0.504362,-0.152446 0.2011651,-0.01742 0.4832278,0.0123 0.9275919,0.191203 0.4443611,0.178905 0.6681901,0.352345 0.8004672,0.503845 0.1322798,0.1515 0.1816658,0.287995 0.2563159,0.457337 0.07465,0.169344 0.1769221,0.373383 0.449068,0.509529 0.2369839,0.118555 0.5525371,0.16745 1.0371461,0.167949 0.484609,-5.03e-4 0.8001619,-0.04939 1.0371456,-0.167949 0.272146,-0.136146 0.374413,-0.340186 0.449068,-0.509529 0.07465,-0.169342 0.1240363,-0.305837 0.2563153,-0.457337 0.132278,-0.1515 0.356107,-0.32494 0.800468,-0.503845 0.444364,-0.178905 0.726427,-0.208621 0.927593,-0.191203 0.201164,0.01742 0.332632,0.08239 0.504362,0.152446 0.208217,0.08495 0.41186,0.136913 0.677478,0.05426 0.265616,-0.08266 0.536075,-0.276254 0.912089,-0.644405 0.376012,-0.368153 0.576301,-0.634358 0.664041,-0.898137 0.0946,-0.284394 0.02248,-0.505671 -0.04496,-0.677994 -0.06744,-0.172323 -0.130168,-0.301751 -0.144178,-0.501778 -0.01401,-0.200027 0.02168,-0.480626 0.208772,-0.919841 0.187098,-0.439216 0.363843,-0.65985 0.519348,-0.791167 0.155507,-0.131317 0.298908,-0.180756 0.472841,-0.259933 0.173933,-0.07918 0.378133,-0.1938609 0.513663,-0.4707709 0.12559,-0.2565977 0.178961,-0.5998345 0.183452,-1.148251 0.0017,-0.147734 -0.117874,-0.2672225 -0.265617,-0.2666502 -1.665532,-6.086e-4 -3.331064,-5.821e-4 -4.996594,-5.292e-4 0.169814,-0.1758228 0.306026,-0.3855294 0.391706,-0.6211506 0.15987,0.060589 0.329971,0.092513 0.509531,0.092513 h 2.372981 c 0.806253,0 1.458826,-0.6589305 1.458826,-1.482597 V 5.78621 c 0,-1.0380231 -0.574101,-1.9415747 -1.422652,-2.3926189 0.22826,-0.2755212 0.363801,-0.6282317 0.363801,-1.0128582 0,-0.8734448 -0.708696,-1.58669994 -1.5875,-1.58698313 -0.878803,2.8311e-4 -1.5875,0.71353783 -1.5875,1.58698313 0,0.3839655 0.136655,0.737024 0.364319,1.0123415 -0.443683,0.23549 -0.81191,0.5946222 -1.062465,1.0335286 C 10.660295,4.0640942 10.306798,3.7679879 9.8986187,3.555855 10.161719,3.2357743 10.318231,2.8255436 10.318231,2.3807329 c 0,-1.0197436 -0.8256223,-1.85156643 -1.851564,-1.85156643 -1.0259419,0 -1.851565,0.83182303 -1.851565,1.85156643 z M 3.7046859,3.9687498 C 3.9849479,3.9686603 4.2497231,3.8939548 4.4772481,3.7677283 4.9995499,3.9763438 5.4361391,4.4056914 5.6565039,4.9469847 5.4218979,5.4059164 5.2927018,5.918212 5.2927018,6.4636881 v 0.5022948 c 0,0.0272 -1.659e-4,0.056806 0.00101,0.083716 -0.1226154,0.060958 -0.2565475,0.094051 -0.4035984,0.094051 h -2.372982 c -0.516948,0 -0.929659,-0.4247674 -0.929659,-0.9534303 V 5.78621 c 0,-0.9249725 0.557523,-1.7035484 1.3441188,-2.0184817 0.2282397,0.1273527 0.4914896,0.2009286 0.7730947,0.2010215 z m 9.5239671,0 c 0.281604,-9.29e-5 0.544853,-0.073669 0.77308,-0.2010215 0.78658,0.3149333 1.344103,1.0935092 1.344103,2.0184817 v 0.4041095 c 0,0.5286629 -0.412712,0.9534303 -0.92966,0.9534303 h -2.372981 c -0.14705,0 -0.280983,-0.033093 -0.403593,-0.094051 0.0012,-0.02691 10e-4,-0.056516 10e-4,-0.083716 V 6.4636881 c 0,-0.5454764 -0.129196,-1.0577717 -0.363802,-1.5167034 0.220332,-0.5412933 0.656954,-0.9706409 1.179272,-1.1792564 0.227542,0.1262259 0.492319,0.200932 0.772581,0.2010215 z M 7.464146,3.9387775 c 0.2885699,0.1861431 0.6349799,0.2945556 1.0025229,0.2945556 0.3675431,0 0.713953,-0.1084125 1.0025228,-0.2945556 0.9659153,0.4101809 1.6422773,1.3777074 1.6422773,2.5249106 v 0.5022948 c 0,0.6806636 -0.532831,1.2332427 -1.2009613,1.2355835 -0.9917732,-1.45e-5 -1.9658113,3.38e-5 -2.8876788,0 C 6.3546999,8.1992381 5.821869,7.6466465 5.821869,6.9659829 V 6.4636881 c 0,-1.1472029 0.6763621,-2.1147297 1.642277,-2.5249106 z M 4.7733539,8.7302164 c 0.08683,1.2202337 0.7725111,2.3261656 1.8417481,2.9434896 0.5728529,0.330737 1.21221,0.496094 1.8515669,0.496094 0.6393572,0 1.2787138,-0.165357 1.8515661,-0.496094 1.069239,-0.617324 1.754921,-1.7232559 1.841749,-2.9434896 l 3.705717,0.00103 c -0.0084,0.2696504 -0.05226,0.5165836 -0.119373,0.6537066 -0.05283,0.1079331 -0.118146,0.156115 -0.259932,0.2206591 -0.141787,0.06454 -0.364645,0.144486 -0.593762,0.3379642 -0.229117,0.1934757 -0.456085,0.4950157 -0.66611,0.9880527 -0.210019,0.493035 -0.268991,0.865221 -0.248046,1.16427 0.02094,0.299049 0.122964,0.512533 0.179833,0.657841 0.03643,0.09309 0.07643,0.194188 0.03514,0.318327 -0.04129,0.124136 -0.184222,0.343966 -0.533301,0.685746 -0.349081,0.341782 -0.575032,0.485085 -0.697115,0.517799 -0.126023,0.03921 -0.207176,0.0069 -0.320394,-0.03927 -0.145024,-0.05916 -0.359087,-0.163741 -0.658358,-0.189653 -0.29927,-0.02591 -0.6737,0.02623 -1.172021,0.22686 -0.498319,0.200628 -0.804151,0.422523 -1.0014903,0.648539 -0.197339,0.226015 -0.279143,0.44889 -0.342098,0.591694 -0.06296,0.142804 -0.1053426,0.202249 -0.2010207,0.250114 C 9.1554292,15.820036 8.9115481,15.872004 8.4666679,15.87345 8.021788,15.87195 7.777907,15.82004 7.6656829,15.763896 7.5700029,15.716036 7.527622,15.656586 7.464662,15.513782 7.401712,15.370978 7.3199029,15.148101 7.122564,14.922088 6.925225,14.69607 6.6193921,14.474177 6.121075,14.273549 5.622754,14.07292 5.2483231,14.020779 4.9490529,14.046689 c -0.29927,0.02591 -0.513334,0.130492 -0.658358,0.189653 -0.1132179,0.04617 -0.1943709,0.07848 -0.320394,0.03927 C 3.848221,14.242904 3.622269,14.099597 3.273188,13.757816 2.9241089,13.416033 2.7811769,13.196203 2.7398869,13.072067 c -0.04129,-0.124138 -0.0013,-0.225236 0.03514,-0.318326 0.05687,-0.145308 0.158894,-0.358792 0.179834,-0.657841 0.02094,-0.29905 -0.03803,-0.671236 -0.248047,-1.164271 C 2.4967899,10.438592 2.2698219,10.137053 2.0407049,9.9435762 1.8115879,9.7500981 1.5887279,9.670155 1.4469419,9.605612 1.3051559,9.5410722 1.2398379,9.492886 1.1870099,9.384953 1.1198999,9.24783 1.0760269,9.0008967 1.0676369,8.7312464 Z M 4.135667,9.3653195 C 3.9551389,9.3564795 3.81804,9.5251461 3.8669498,9.6991502 4.307216,11.342241 5.591095,12.626121 7.234186,13.066386 7.575598,13.152616 7.7108991,12.652406 7.3706121,12.556856 5.9208801,12.168402 4.7701,11.026091 4.378546,9.564791 4.3502359,9.4525625 4.251232,9.3717598 4.135667,9.3653195 Z m 8.662005,0 c -0.115565,0.00644 -0.214566,0.087243 -0.242881,0.1994715 -0.391554,1.4613 -1.542333,2.603611 -2.9920653,2.992065 -0.3402877,0.09555 -0.2049856,0.595759 0.136426,0.50953 1.6430923,-0.440265 2.9269723,-1.724145 3.3672363,-3.3672358 0.04891,-0.1740041 -0.08819,-0.3426741 -0.268716,-0.3338307 z" id="path2488" style="color:#000000;font-style:normal;font-variant:normal;font-weight:normal;font-stretch:normal;font-size:medium;line-height:normal;font-family:sans-serif;font-variant-ligatures:normal;font-variant-position:normal;font-variant-caps:normal;font-variant-numeric:normal;font-variant-alternates:normal;font-feature-settings:normal;text-indent:0;text-align:start;text-decoration:none;text-decoration-line:none;text-decoration-style:solid;text-decoration-color:#000000;letter-spacing:normal;word-spacing:normal;text-transform:none;writing-mode:lr-tb;direction:ltr;text-orientation:mixed;dominant-baseline:auto;baseline-shift:baseline;text-anchor:start;white-space:normal;shape-padding:0;clip-rule:nonzero;display:inline;overflow:visible;visibility:visible;opacity:1;isolation:auto;mix-blend-mode:normal;color-interpolation:sRGB;color-interpolation-filters:linearRGB;solid-color:#000000;solid-opacity:1;vector-effect:none;fill:#000000;fill-opacity:1;fill-rule:nonzero;stroke:none;stroke-width:0.52916664;stroke-linecap:butt;stroke-linejoin:round;stroke-miterlimit:4;stroke-dasharray:none;stroke-dashoffset:0;stroke-opacity:1;color-rendering:auto;image-rendering:auto;shape-rendering:auto;text-rendering:auto;enable-background:accumulate"/></g></svg>